# AST/ASF file generated using VICON BodyLanguage
# -----------------------------------------------
:version 1.10
:name VICON
:units
  mass 1.0
  length 0.45
  angle deg
:documentation
   .ast/.asf automatically generated from VICON data using
   VICON BodyBuilder and BodyLanguage model FoxedUp or BRILLIANT.MOD
:root
   order TX TY TZ RX RY RZ
   axis XYZ
   position 0 0 0  
   orientation 0 0 0 
:bonedata
  begin
     id 1 
     name lhipjoint
     direction 0.62366 -0.717238 0.310833 
     length 2.53602 
     axis 0 0 0  XYZ
  end
  begin
     id 2 
     name lfemur
     direction 0.34202 -0.939693 0  
     length 7.40817  
     axis 0 0 20  XYZ
    dof rx ry rz
    limits (-160.0 20.0)
           (-70.0 70.0)
           (-60.0 70.0)
  end
  begin
     id 3 
     name ltibia
     direction 0.34202 -0.939693 0   
     length 7.7045   
     axis 0 0 20   XYZ
    dof rx
    limits (-10.0 170.0)
  end
  begin
     id 4 
     name lfoot
     direction 0.0673888 -0.185149 0.980397   
     length 2.09456   
     axis -90 7.62852e-016 20   XYZ
    dof rx rz
    limits (-45.0 90.0)
           (-70.0 20.0)
  end
  begin
     id 5 
     name ltoes
     direction 1.53575e-011 -4.21994e-011 1   
     length 1.05543   
     axis -90 7.62852e-016 20   XYZ
    dof rx
    limits (-90.0 20.0)
  end
  begin
     id 6 
     name rhipjoint
     direction -0.489018 -0.800347 0.346851   
     length 2.27268  
     axis 0 0 0  XYZ 
  end
  begin
     id 7 
     name rfemur
     direction -0.34202 -0.939693 0   
     length 7.55487   
     axis 0 0 -20   XYZ
    dof rx ry rz
    limits (-160.0 20.0)
           (-70.0 70.0)
           (-70.0 60.0)
  end
  begin
     id 8 
     name rtibia
     direction -0.34202 -0.939693 0   
     length 7.78969   
     axis 0 0 -20   XYZ
    dof rx
    limits (-10.0 170.0)
 end
 begin
     id 9 
     name rfoot
     direction -0.0859318 -0.236096 0.967923   
     length 2.19143  
     axis -90 -7.62852e-016 -20   XYZ
    dof rx rz
    limits (-45.0 90.0)
           (-20.0 70.0)
  end
  begin
     id 10 
     name rtoes
     direction -1.53538e-011 -4.21989e-011 1   
     length 1.09845   
     axis -90 -7.62852e-016 -20   XYZ
    dof rx
    limits (-90.0 20.0)
  end
  begin
     id 11 
     name lowerback
     direction -0.00762546 0.998978 -0.0445553   
     length 1.98161   
     axis 0 0 0   XYZ
    dof rx ry rz
    limits (-20.0 45.0)
           (-30.0 30.0)
           (-30.0 30.0)
  end
  begin
     id 12 
     name upperback
     direction 0.0422361 0.998867 -0.0219156   
     length 1.97558   
     axis 0 0 0   XYZ
    dof rx ry rz
    limits (-20.0 45.0)
           (-30.0 30.0)
           (-30.0 30.0)
  end
  begin
     id 13 
     name thorax
     direction 0.0442465 0.999021 7.47603e-005   
     length 1.97799   
     axis 0 0 0   XYZ
    dof rx ry rz
    limits (-20.0 45.0)
           (-30.0 30.0)
           (-30.0 30.0)
  end
  begin
     id 14 
     name lowerneck
     direction 0.00312169 0.984641 0.174564   
     length 1.78995   
     axis 0 0 0   XYZ
    dof rx ry rz
    limits (-20.0 45.0)
           (-30.0 30.0)
           (-30.0 30.0)
  end
  begin
     id 15 
     name upperneck
     direction -0.0383028 0.985255 -0.166749   
     length 1.83053   
     axis 0 0 0   XYZ
    dof rx ry rz
    limits (-20.0 45.0)
           (-30.0 30.0)
           (-30.0 30.0)
  end
  begin
     id 16
     name head
     direction -0.0129546 0.997059 -0.0755386  
     length 1.84088  
     axis 0 0 0   XYZ
    dof rx ry rz
    limits (-20.0 45.0)
           (-30.0 30.0)
           (-30.0 30.0)
  end
  begin
     id 17 
     name lclavicle
     direction 0.912857 0.370519 -0.171488  
     length 3.51279  
     axis 0 0 0   XYZ
    dof ry rz
    limits (-20.0 10.0)
           (0.0 20.0)
  end
  begin
     id 18 
     name lhumerus
     direction 1 -4.48962e-011 3.64361e-027   
     length 4.95663   
     axis 180 -30 -90   XYZ
    dof rx ry rz
    limits (-60.0 90.0)
           (-90.0 90.0)
           (-90.0 90.0)
  end
  begin
     id 19
     name lradius
     direction 1 -4.48974e-011 5.97202e-027   
     length 3.38177   
     axis 180 -30 -90   XYZ
    dof rx
    limits (-10.0 170.0)
  end
  begin
     id 20
     name lwrist
     direction 1 -4.4896e-011 9.83288e-027   
     length 1.69088   
     axis -9.31221e-015 90 90   XYZ
    dof ry
    limits (-180.0 0.0)
 end
  begin
     id 21 
     name lhand
     direction 1 -4.4902e-011 1.96551e-026   
     length 0.662909   
     axis -1.25475e-014 90 90   XYZ
    dof rx rz
    limits (-90.0 90.0)
           (-45.0 45.0)
  end
  begin
     id 22 
     name lfingers
     direction 1 -4.48971e-011 3.93277e-026   
     length 0.534454   
     axis -2.50945e-014 90 90   XYZ
    dof rx
    limits (0.0 90.0)
  end
  begin
     id 23
     name lthumb
     direction 0.707107 -6.34933e-011 0.707107   
     length 0.767373   
     axis -90 45 -4.80359e-014   XYZ
    dof rx rz
    limits (-45.0 45.0)
           (-45.0 45.0)
  end
  begin
     id 24 
     name rclavicle
     direction -0.900919 0.395364 -0.178976   
     length 3.40627  
     axis 0 0 0   XYZ 
    dof ry rz
    limits (-10.0 20.0)
           (-20.0 0.0)
  end
  begin
     id 25 
     name rhumerus
     direction -1 -4.48969e-011 1.03875e-027  
     length 5.08365   
     axis 180 30 90   XYZ
    dof rx ry rz
    limits (-90.0 60.0)
           (-90.0 90.0)
           (-90.0 90.0)
  end
  begin
     id 26 
     name rradius
     direction -1 -4.48951e-011 5.02733e-027   
     length 3.35984   
     axis 180 30 90   XYZ
    dof rx
    limits (-10.0 170.0)
  end
  begin
     id 27 
     name rwrist
     direction -1 -4.49011e-011 9.82828e-027   
     length 1.67992   
     axis -9.31221e-015 -90 -90   XYZ
    dof ry
    limits (-180.0 0.0)
  end
  begin
     id 28
     name rhand
     direction -1 -4.48894e-011 1.96774e-026   
     length 0.820764   
     axis -1.25475e-014 -90 -90   XYZ
    dof rx rz
    limits (-90.0 90.0)
           (-45.0 45.0)
  end
  begin
     id 29
     name rfingers
     direction -1 -4.49095e-011 3.92833e-026   
     length 0.661721   
     axis -2.50945e-014 -90 -90   XYZ
    dof rx
    limits (0.0 90.0)
  end
  begin
     id 30
     name rthumb
     direction -0.707107 -6.34881e-011 0.707107   
     length 0.950103   
     axis -90 -45 4.80359e-014   XYZ
    dof rx rz
    limits (-45.0 45.0)
           (-45.0 45.0)
  end
:hierarchy
  begin
    root lhipjoint rhipjoint lowerback
    lhipjoint lfemur
    lfemur ltibia
    ltibia lfoot
    lfoot ltoes
    rhipjoint rfemur
    rfemur rtibia
    rtibia rfoot
    rfoot rtoes
    lowerback upperback
    upperback thorax
    thorax lowerneck lclavicle rclavicle
    lowerneck upperneck
    upperneck head
    lclavicle lhumerus
    lhumerus lradius
    lradius lwrist
    lwrist lhand lthumb
    lhand lfingers
    rclavicle rhumerus
    rhumerus rradius
    rradius rwrist
    rwrist rhand rthumb
    rhand rfingers
  end

#!OML:ASF I:\golf\golf\golf 2\Subject 1\2002-09-07\Subject1.ASF
:FULLY-SPECIFIED
:DEGREES
50
root -7.21191 17.7865 0.330275 -59.6847 88.5456 -74.6526
lowerback 2.36042 1.80329 -3.43653
upperback 3.26398 2.40875 3.86553
thorax 1.73783 1.12685 5.9151
lowerneck -15.409 -0.760218 1.55965
upperneck 37.1211 1.70739 -4.56886
head 15.7657 0.78741 -1.80439
rclavicle -6.75868e-015 -2.78299e-014
rhumerus -6.22796 -2.48699 -101.922
rradius 21.9272
rwrist -36.904
rhand -14.0976 -7.68828
rfingers 7.12502
rthumb 12.035 -37.3222
lclavicle -6.75868e-015 -2.78299e-014
lhumerus -11.2388 -44.2694 110.901
lradius 26.831
lwrist 39.6636
lhand -13.422 67.4879
lfingers 7.12502
lthumb -167.314 82.9175
rfemur -29.3786 -1.55949 11.0227
rtibia 31.2513
rfoot -10.6446 -9.25383
rtoes -8.23326
lfemur -28.116 5.33451 -11.0618
ltibia 28.2924
lfoot -11.9937 -4.11169
ltoes -19.3922
51
root -7.21269 17.7851 0.327686 -59.3135 88.6108 -74.3102
lowerback 2.3193 1.81006 -3.44213
upperback 3.26309 2.41757 3.8054
thorax 1.76092 1.13049 5.85627
lowerneck -15.4325 -0.777153 1.63437
upperneck 37.1517 1.65827 -4.56498
head 15.7843 0.778214 -1.82553
rclavicle -3.97569e-015 9.22361e-014
rhumerus -6.23196 -2.48717 -101.959
rradius 21.9961
rwrist -37.1558
rhand -14.1143 -7.7752
rfingers 7.12502
rthumb 12.0189 -37.4101
lclavicle -3.97569e-015 9.22361e-014
lhumerus -11.2357 -44.3811 110.827
lradius 26.8666
lwrist 39.613
lhand -13.3664 67.4751
lfingers 7.12502
lthumb -167.26 82.9336
rfemur -29.4113 -1.62289 10.945
rtibia 31.2543
rfoot -10.7046 -9.22444
rtoes -8.17161
lfemur -28.1578 5.32139 -11.146
ltibia 28.2932
lfoot -11.9967 -4.13382
ltoes -19.4323
52
root -7.21355 17.7848 0.327434 -59.0248 88.6532 -74.0391
lowerback 2.2963 1.82063 -3.44148
upperback 3.25984 2.43138 3.75234
thorax 1.77075 1.1372 5.80055
lowerneck -15.4533 -0.792795 1.67832
upperneck 37.1941 1.61336 -4.53496
head 15.8079 0.770492 -1.8293
rclavicle -1.47101e-014 7.95139e-016
rhumerus -6.21778 -2.62608 -102.02
rradius 22.0171
rwrist -37.2783
rhand -14.2028 -7.72924
rfingers 7.12502
rthumb 11.9336 -37.3691
lclavicle -1.47101e-014 7.95139e-016
lhumerus -11.2608 -44.5549 110.758
lradius 26.9306
lwrist 39.6723
lhand -13.3194 67.3985
lfingers 7.12502
lthumb -167.215 83.013
rfemur -29.4331 -1.66227 10.9006
rtibia 31.2622
rfoot -10.7531 -9.21526
rtoes -7.94672
lfemur -28.181 5.31156 -11.1965
ltibia 28.296
lfoot -12.0142 -4.12152
ltoes -19.5718
53
root -7.21473 17.7844 0.327058 -60.7219 88.6397 -75.7375
lowerback 2.30738 1.80765 -3.45589
upperback 3.25176 2.4141 3.79298
thorax 1.75629 1.12869 5.85125
lowerneck -15.4598 -0.796969 1.65333
upperneck 37.225 1.63486 -4.57021
head 15.8267 0.772231 -1.83683
rclavicle 1.31198e-014 -1.66979e-014
rhumerus -6.24482 -2.69382 -101.992
rradius 22.036
rwrist -37.3133
rhand -14.2079 -7.63692
rfingers 7.12502
rthumb 11.9287 -37.2771
lclavicle 1.31198e-014 -1.66979e-014
lhumerus -11.2397 -44.4747 110.787
lradius 26.8869
lwrist 39.5076
lhand -13.2258 67.3852
lfingers 7.12502
lthumb -167.125 83.0319
rfemur -29.4285 -1.69404 10.9384
rtibia 31.2633
rfoot -10.7258 -9.22786
rtoes -7.81328
lfemur -28.2015 5.30338 -11.1666
ltibia 28.3074
lfoot -12.0437 -4.13478
ltoes -19.5982
54
root -7.21573 17.7835 0.325337 -61.3261 88.6078 -76.3429
lowerback 2.30894 1.79779 -3.44249
upperback 3.24485 2.40142 3.82917
thorax 1.74896 1.12289 5.88169
lowerneck -15.4597 -0.788142 1.62561
upperneck 37.2405 1.67363 -4.60256
head 15.837 0.780783 -1.83927
rclavicle -3.1408e-014 -4.45278e-014
rhumerus -6.3082 -2.58667 -101.941
rradius 22.0947
rwrist -37.433
rhand -14.0757 -7.61044
rfingers 7.12502
rthumb 12.0561 -37.2432
lclavicle -3.1408e-014 -4.45278e-014
lhumerus -11.1997 -44.3195 110.819
lradius 26.7967
lwrist 39.2988
lhand -13.1469 67.4143
lfingers 7.12502
lthumb -167.048 83.0077
rfemur -29.4288 -1.72131 10.9801
rtibia 31.2515
rfoot -10.6893 -9.18244
rtoes -7.84448
lfemur -28.2253 5.31159 -11.1326
ltibia 28.3282
lfoot -11.9975 -4.15343
ltoes -19.2653
55
root -7.21661 17.7823 0.323803 -61.7642 88.5797 -76.7854
lowerback 2.29342 1.78766 -3.41569
upperback 3.24205 2.38863 3.84734
thorax 1.75664 1.11684 5.88626
lowerneck -15.4681 -0.768956 1.58262
upperneck 37.27 1.71152 -4.57655
head 15.8555 0.794711 -1.81425
rclavicle 1.98785e-015 1.59028e-015
rhumerus -6.3491 -2.50632 -101.905
rradius 22.1329
rwrist -37.5437
rhand -13.9203 -7.63666
rfingers 7.12502
rthumb 12.206 -37.2605
lclavicle 1.98785e-015 1.59028e-015
lhumerus -11.149 -44.239 110.792
lradius 26.7448
lwrist 39.1917
lhand -13.0606 67.3643
lfingers 7.12502
lthumb -166.965 83.063
rfemur -29.4322 -1.74439 11.0088
rtibia 31.2414
rfoot -10.7257 -9.11288
rtoes -7.59687
lfemur -28.245 5.3084 -11.102
ltibia 28.3518
lfoot -11.961 -4.15024
ltoes -19.0564
56
root -7.21808 17.7826 0.321958 -64.1382 88.5282 -79.1473
lowerback 2.31568 1.77435 -3.35803
upperback 3.24033 2.37174 3.88499
thorax 1.74512 1.11002 5.89241
lowerneck -15.4893 -0.756995 1.55068
upperneck 37.3096 1.73744 -4.55488
head 15.8817 0.804689 -1.79545
rclavicle -2.78299e-015 1.03368e-014
rhumerus -6.37617 -2.46254 -101.857
rradius 22.1539
rwrist -37.6565
rhand -13.8164 -7.63596
rfingers 7.12502
rthumb 12.3061 -37.2538
lclavicle -2.78299e-015 1.03368e-014
lhumerus -11.1051 -44.1553 110.772
lradius 26.7184
lwrist 39.055
lhand -12.9879 67.3392
lfingers 7.12502
lthumb -166.895 83.0926
rfemur -29.4071 -1.82435 11.0938
rtibia 31.2376
rfoot -10.7395 -9.02998
rtoes -7.62225
lfemur -28.2485 5.25282 -11.0185
ltibia 28.3692
lfoot -11.9697 -4.13303
ltoes -19.0401
57
root -7.21989 17.7829 0.319666 -66.0689 88.5263 -81.0818
lowerback 2.3343 1.76466 -3.32836
upperback 3.23269 2.35911 3.90315
thorax 1.72871 1.10492 5.89392
lowerneck -15.5125 -0.761974 1.51525
upperneck 37.3458 1.73987 -4.5369
head 15.9055 0.803828 -1.78166
rclavicle -1.03368e-014 -1.66979e-014
rhumerus -6.38125 -2.52086 -101.821
rradius 22.1407
rwrist -37.6442
rhand -13.7318 -7.58983
rfingers 7.12502
rthumb 12.3877 -37.2028
lclavicle -1.03368e-014 -1.66979e-014
lhumerus -11.0741 -44.1054 110.776
lradius 26.6927
lwrist 38.9307
lhand -13.0059 67.4485
lfingers 7.12502
lthumb -166.912 82.9821
rfemur -29.4084 -1.9259 11.1273
rtibia 31.2383
rfoot -10.7029 -8.96138
rtoes -7.8567
lfemur -28.2773 5.18898 -10.9969
ltibia 28.3831
lfoot -11.9765 -4.12344
ltoes -19.0285
58
root -7.22098 17.7819 0.317723 -67.4402 88.5614 -82.4737
lowerback 2.31587 1.7406 -3.33657
upperback 3.22272 2.3271 3.90992
thorax 1.73224 1.08865 5.90674
lowerneck -15.5199 -0.769073 1.46983
upperneck 37.379 1.74762 -4.53143
head 15.9244 0.802237 -1.77039
rclavicle 2.54444e-014 3.65764e-014
rhumerus -6.38252 -2.5869 -101.809
rradius 22.1101
rwrist -37.5585
rhand -13.6456 -7.56393
rfingers 7.12502
rthumb 12.4708 -37.1718
lclavicle 2.54444e-014 3.65764e-014
lhumerus -11.0411 -44.0534 110.774
lradius 26.6641
lwrist 38.817
lhand -13.0911 67.6635
lfingers 7.12502
lthumb -166.995 82.7619
rfemur -29.4325 -1.98316 11.101
rtibia 31.2426
rfoot -10.6912 -8.93319
rtoes -7.7516
lfemur -28.3292 5.13963 -11.0245
ltibia 28.3959
lfoot -12.0013 -4.13106
ltoes -19.0879
59
root -7.22128 17.7813 0.317996 -67.969 88.5488 -82.9889
lowerback 2.29873 1.73615 -3.32364
upperback 3.2375 2.3218 3.91676
thorax 1.75805 1.08539 5.90768
lowerneck -15.5168 -0.774044 1.48773
upperneck 37.3719 1.75304 -4.58038
head 15.9211 0.800372 -1.79372
rclavicle 3.06128e-014 0
rhumerus -6.36249 -2.70048 -101.815
rradius 22.0767
rwrist -37.4341
rhand -13.4189 -7.54155
rfingers 7.12502
rthumb 12.6894 -37.136
lclavicle 3.06128e-014 0
lhumerus -10.9951 -44.0007 110.758
lradius 26.6084
lwrist 38.6636
lhand -13.2419 67.8627
lfingers 7.12502
lthumb -167.14 82.5535
rfemur -29.4199 -2.01247 11.1289
rtibia 31.249
rfoot -10.6891 -8.95075
rtoes -7.95884
lfemur -28.3213 5.16409 -11.0089
ltibia 28.4008
lfoot -12.0009 -4.18009
ltoes -19.136
60
root -7.2225 17.781 0.318588 -67.1379 88.5875 -82.1224
lowerback 2.30002 1.76391 -3.3483
upperback 3.27451 2.3586 3.88594
thorax 1.79132 1.10202 5.88961
lowerneck -15.537 -0.797708 1.49123
upperneck 37.3537 1.7076 -4.56837
head 15.9143 0.782646 -1.79697
rclavicle -1.63003e-014 -1.90833e-014
rhumerus -6.2941 -2.85549 -101.815
rradius 22.0522
rwrist -37.3683
rhand -13.2736 -7.48111
rfingers 7.12502
rthumb 12.8295 -37.0668
lclavicle -1.63003e-014 -1.90833e-014
lhumerus -10.9407 -44.1582 110.72
lradius 26.5834
lwrist 38.589
lhand -13.3547 67.9376
lfingers 7.12502
lthumb -167.249 82.4717
rfemur -29.389 -2.04153 11.0925
rtibia 31.2518
rfoot -10.6839 -8.96058
rtoes -8.20663
lfemur -28.282 5.21368 -11.0658
ltibia 28.397
lfoot -11.9677 -4.24863
ltoes -19.1216
61
root -7.22452 17.7814 0.318036 -65.7123 88.6795 -80.6719
lowerback 2.31659 1.80107 -3.41743
upperback 3.29276 2.40685 3.83992
thorax 1.79414 1.12446 5.87967
lowerneck -15.549 -0.833591 1.465
upperneck 37.3506 1.63082 -4.49207
head 15.9105 0.757147 -1.7727
rclavicle -1.86858e-014 -7.95139e-016
rhumerus -6.21964 -3.0236 -101.827
rradius 22.0148
rwrist -37.3417
rhand -13.4053 -7.39938
rfingers 7.12502
rthumb 12.7025 -36.993
lclavicle -1.86858e-014 -7.95139e-016
lhumerus -10.9397 -44.4811 110.708
lradius 26.6807
lwrist 38.4084
lhand -13.1327 68.0068
lfingers 7.12502
lthumb -167.035 82.416
rfemur -29.3644 -2.02669 10.9707
rtibia 31.2493
rfoot -10.6936 -8.9297
rtoes -7.85599
lfemur -28.2594 5.19457 -11.177
ltibia 28.3859
lfoot -11.9654 -4.24141
ltoes -19.1227
